#!OML:ASF I:\Actors\actors\Patient Classification 1\Patient 1\Session 1\Subject1.ASF
:FULLY-SPECIFIED
:DEGREES
816
root -0.505768 17.7785 7.02194 11.5817 1.49794 -9.20744
lowerback 13.2661 0.266234 5.74281
upperback -3.28373 1.48983 1.19193
thorax -10.9616 0.374689 -2.28093
lowerneck -20.438 -5.22953 -2.63059
upperneck 12.3386 -8.27357 10.8643
head 7.76347 -3.02937 2.97692
rclavicle 3.40916e-014 1.59028e-014
rhumerus 70.8191 26.4934 -55.3517
rradius 40.9904
rwrist 30.2806
rhand 11.952 -27.611
rfingers 7.12502
rthumb 36.9753 -53.6819
lclavicle 3.40916e-014 1.59028e-014
lhumerus 68.6267 -31.3921 38.2835
lradius 41.7096
lwrist -26.4551
lhand -22.3396 -34.0806
lfingers 7.12502
lthumb 4.08082 -4.13989
rfemur -9.83833 24.529 24.7282
rtibia 2.85616
rfoot -9.46208 -25.2349
rtoes 5.02286
lfemur 173.715 217.959 175.699
ltibia -2.65009
lfoot 352.116 -316.904
ltoes -1.85679
817
root -0.498162 17.7954 7.00353 12.2652 1.83234 -9.28747
lowerback 13.4186 0.357873 5.85233
upperback -3.0488 1.6432 1.3035
thorax -10.7765 0.454347 -2.25696
lowerneck -20.6668 -5.3731 -2.6771
upperneck 11.2393 -8.34283 10.9144
head 7.44826 -3.09464 2.98606
rclavicle -9.93923e-015 -1.11319e-014
rhumerus 71.8954 25.1371 -58.3934
rradius 36.2049
rwrist 33.9396
rhand 11.4187 -27.2437
rfingers 7.12502
rthumb 36.4707 -53.4432
lclavicle -9.93923e-015 -1.11319e-014
lhumerus 70.3958 -30.4564 41.9717
lradius 37.0083
lwrist -28.878
lhand -22.5994 -34.1683
lfingers 7.12502
lthumb 3.82993 -4.22295
rfemur -10.6028 24.9458 24.3872
rtibia 2.5931
rfoot -9.32211 -25.8853
rtoes 5.60414
lfemur 172.558 218.599 176.625
ltibia -2.73482
lfoot 352.12 -316.342
ltoes -1.45437
818
root -0.490596 17.812 6.98853 12.9343 2.174 -9.3378
lowerback 13.5825 0.433298 5.90704
upperback -2.84653 1.76914 1.43108
thorax -10.6391 0.523195 -2.17919
lowerneck -20.8451 -5.51515 -2.75239
upperneck 10.2343 -8.41209 10.9629
head 7.15848 -3.15953 3.00163
rclavicle -1.96797e-014 2.54444e-014
rhumerus 72.5009 23.7274 -62.0926
rradius 32.0744
rwrist 37.9954
rhand 10.9507 -26.8791
rfingers 7.12502
rthumb 36.0275 -53.1889
lclavicle -1.96797e-014 2.54444e-014
lhumerus 71.5489 -29.5796 46.3938
lradius 32.6836
lwrist -31.6773
lhand -22.7883 -34.0704
lfingers 7.12502
lthumb 3.64754 -4.12185
rfemur -11.3552 25.3601 24.0076
rtibia 2.35403
rfoot -9.22852 -26.5451
rtoes 6.21813
lfemur 171.407 219.27 177.534
ltibia -2.80874
lfoot 352.088 -315.746
ltoes -1.09334
819
root -0.482919 17.8285 6.97696 13.5989 2.52281 -9.36228
lowerback 13.7405 0.48786 5.92032
upperback -2.68074 1.86218 1.56895
thorax -10.5435 0.577409 -2.05996
lowerneck -20.942 -5.63714 -2.83406
upperneck 9.28498 -8.45779 11.0049
head 6.87334 -3.21457 3.02161
rclavicle -1.71949e-014 -5.52621e-014
rhumerus 72.7634 22.236 -66.2164
rradius 28.6221
rwrist 42.233
rhand 10.5217 -26.5145
rfingers 7.12502
rthumb 35.621 -52.9233
lclavicle -1.71949e-014 -5.52621e-014
lhumerus 72.0817 -28.6905 51.5006
lradius 28.76
lwrist -34.9128
lhand -22.9779 -33.7026
lfingers 7.12502
lthumb 3.46443 -3.75096
rfemur -12.1099 25.7741 23.5876
rtibia 2.14276
rfoot -9.18687 -27.2203
rtoes 6.90105
lfemur 170.247 220.003 178.445
ltibia -2.87133
lfoot 351.995 -315.087
ltoes -0.715023
820
root -0.474757 17.8447 6.96879 14.2643 2.87498 -9.36131
lowerback 13.8715 0.523149 5.91973
upperback -2.54388 1.92566 1.70087
thorax -10.4673 0.616995 -1.93259
lowerneck -20.9886 -5.73333 -2.91047
upperneck 8.40333 -8.47705 11.0401
head 6.60112 -3.25618 3.04371
rclavicle -1.61016e-014 -4.37326e-015
rhumerus 72.8339 20.637 -70.5092
rradius 25.8218
rwrist 46.4122
rhand 10.1328 -26.1929
rfingers 7.12502
rthumb 35.2523 -52.6897
lclavicle -1.61016e-014 -4.37326e-015
lhumerus 72.0274 -27.6899 57.2661
lradius 25.2311
lwrist -38.7386
lhand -23.1249 -33.003
lfingers 7.12502
lthumb 3.32245 -3.04919
rfemur -12.8735 26.182 23.1243
rtibia 1.95959
rfoot -9.19144 -27.9046
rtoes 7.64918
lfemur 169.064 220.792 179.366
ltibia -2.91192
lfoot 351.819 -314.37
ltoes -0.247578
821
root -0.465884 17.8604 6.9637 14.9217 3.2269 -9.34329
lowerback 13.9714 0.542044 5.944
upperback -2.4187 1.96746 1.81124
thorax -10.3865 0.643798 -1.83733
lowerneck -21.0435 -5.80868 -2.95455
upperneck 7.59861 -8.48184 11.0488
head 6.35259 -3.28846 3.05448
rclavicle 6.65929e-015 -3.18055e-015
rhumerus 72.8655 18.9199 -74.7352
rradius 23.6055
rwrist 50.3492
rhand 9.76807 -25.9536
rfingers 7.12502
rthumb 34.9063 -52.5315
lclavicle 6.65929e-015 -3.18055e-015
lhumerus 71.4928 -26.4823 63.5796
lradius 22.0919
lwrist -43.1861
lhand -23.0888 -32.1602
lfingers 7.12502
lthumb 3.35731 -2.2069
rfemur -13.6339 26.5693 22.6349
rtibia 1.80101
rfoot -9.22325 -28.5794
rtoes 8.40348
lfemur 167.865 221.584 180.294
ltibia -2.92607
lfoot 351.585 -313.651
ltoes 0.323384
822
root -0.456314 17.875 6.96098 15.5505 3.56962 -9.31607
lowerback 14.0632 0.543582 6.0113
upperback -2.2959 1.99069 1.89807
thorax -10.303 0.6583 -1.78756
lowerneck -21.144 -5.86492 -2.96847
upperneck 6.88551 -8.47507 11.029
head 6.13802 -3.3113 3.05249
rclavicle 2.11706e-014 -1.78906e-014
rhumerus 72.9923 17.1405 -78.5835
rradius 21.9075
rwrist 53.8143
rhand 9.40143 -25.8455
rfingers 7.12502
rthumb 34.5584 -52.5036
lclavicle 2.11706e-014 -1.78906e-014
lhumerus 70.5962 -24.9735 70.2901
lradius 19.3535
lwrist -48.2458
lhand -22.9045 -31.4603
lfingers 7.12502
lthumb 3.53532 -1.50989
rfemur -14.3659 26.9172 22.1446
rtibia 1.66201
rfoot -9.24677 -29.2197
rtoes 9.0543
lfemur 166.688 222.315 181.205
ltibia -2.92535
lfoot 351.377 -312.985
ltoes 0.878902
823
root -0.446257 17.888 6.95982 16.1293 3.89337 -9.28659
lowerback 14.182 0.536917 6.12974
upperback -2.17781 2.01195 1.95912
thorax -10.2385 0.667261 -1.79467
lowerneck -21.2858 -5.91322 -2.95626
upperneck 6.26714 -8.4726 10.9913
head 5.9591 -3.33171 3.03963
rclavicle -1.41137e-014 3.67752e-014
rhumerus 73.2533 15.3385 -81.8249
rradius 20.6532
rwrist 56.6674
rhand 9.02252 -25.8922
rfingers 7.12502
rthumb 34.1987 -52.6316
lclavicle -1.41137e-014 3.67752e-014
lhumerus 69.5029 -23.1522 77.1529
lradius 17.055
lwrist -53.7358
lhand -22.5227 -31.0046
lfingers 7.12502
lthumb 3.90406 -1.06065
rfemur -15.0426 27.2236 21.6773
rtibia 1.53569
rfoot -9.23259 -29.8171
rtoes 9.52244
lfemur 165.581 222.938 182.065
ltibia -2.92307
lfoot 351.27 -312.409
ltoes 1.29389
824
root -0.436138 17.8995 6.95955 16.6458 4.19131 -9.26124
lowerback 14.3551 0.52668 6.2929
upperback -2.07183 2.04029 2.00389
thorax -10.2165 0.674929 -1.84734
lowerneck -21.4649 -5.96497 -2.95325
upperneck 5.76028 -8.48455 10.9566
head 5.82346 -3.35352 3.0267
rclavicle 1.21259e-014 2.22639e-014
rhumerus 73.6373 13.5404 -84.4371
rradius 19.713
rwrist 58.9924
rhand 8.62994 -26.0414
rfingers 7.12502
rthumb 33.8258 -52.8637
lclavicle 1.21259e-014 2.22639e-014
lhumerus 68.4284 -21.0923 83.7191
lradius 15.2408
lwrist -59.2635
lhand -22.0559 -30.8311
lfingers 7.12502
lthumb 4.3548 -0.895868
rfemur -15.6477 27.5098 21.2477
rtibia 1.41688
rfoot -9.18604 -30.3859
rtoes 9.83068
lfemur 164.578 223.438 182.85
ltibia -2.92971
lfoot 351.263 -311.931
ltoes 1.57476
825
root -0.426365 17.9095 6.9598 17.1046 4.45605 -9.2373
lowerback 14.5872 0.511763 6.4746
upperback -1.99424 2.07229 2.0398
thorax -10.2592 0.680417 -1.92223
lowerneck -21.6235 -6.00839 -2.94926
upperneck 5.33947 -8.49388 10.9129
head 5.7114 -3.37211 3.01115
rclavicle -7.35503e-015 1.59028e-014
rhumerus 74.1123 11.7908 -86.2837
rradius 19.0247
rwrist 60.76
rhand 8.29112 -26.2556
rfingers 7.12502
rthumb 33.5038 -53.1481
lclavicle -7.35503e-015 1.59028e-014
lhumerus 67.6063 -18.9942 89.2949
lradius 13.9295
lwrist -64.1302
lhand -21.6984 -30.8819
lfingers 7.12502
lthumb 4.70003 -0.954066
rfemur -16.185 27.8044 20.8472
rtibia 1.30053
rfoot -9.12988 -30.9495
rtoes 10.0318
lfemur 163.682 223.82 183.551
ltibia -2.94416
lfoot 351.319 -311.541
ltoes 1.77231
